<svg version="1.1" id="Layer_1" xmlns="http://www.w3.org/2000/svg" xmlns:xlink="http://www.w3.org/1999/xlink" x="0px" y="0px"
	 width="100%" viewBox="0 0 871 215" enable-background="new 0 0 871 215" xml:space="preserve">
<path fill="none" opacity="1.000000" stroke="#000000" stroke-linecap="round" stroke-linejoin="round" stroke-width="7.000000"
	d="
M571.000000,83.750000 
	C570.205139,82.957260 569.170776,82.826874 568.361023,81.591049 
	C562.456848,72.580254 545.416504,68.680946 536.019958,74.035065 
	C531.288879,76.730850 528.070496,80.657417 528.533142,86.497375 
	C529.015320,92.582970 533.721130,94.940689 538.510986,96.974190 
	C545.250671,99.835480 552.727966,100.132576 559.549194,102.877754 
	C561.212708,103.547234 562.896790,104.245995 564.474670,105.049774 
	C568.886414,107.297142 571.828430,110.809105 571.432617,115.994858 
	C571.041748,121.115898 568.549072,125.119698 563.494080,126.983940 
	C554.451355,130.318817 545.460571,130.484146 536.486267,126.531227 
	C531.993835,124.552437 529.208313,121.192322 527.500000,116.750000 
"/>
<path fill="none" opacity="1.000000" stroke="#000000" stroke-linecap="round" stroke-linejoin="round" stroke-width="7.000000"
	d="
M332.500000,86.500000 
	C330.900879,85.099121 329.268097,83.932037 327.835297,82.131035 
	C320.547974,72.971008 310.626282,70.344994 299.520142,73.081795 
	C288.942444,75.688370 282.531342,82.848763 280.559204,93.510948 
	C278.226318,106.123428 280.843079,116.882233 291.903015,125.130043 
	C300.350861,131.429932 319.013550,130.199493 325.618256,121.590736 
	C327.566650,119.051193 329.209381,115.876038 332.500000,114.500000 
"/>
<path fill="none" opacity="1.000000" stroke="#000000" stroke-linecap="round" stroke-linejoin="round" stroke-width="7.000000"
	d="
M623.000000,96.000000 
	C620.790649,95.608627 619.359192,94.041908 618.020142,92.482719 
	C613.115662,86.772163 603.924805,85.692795 597.548523,88.606148 
	C590.116516,92.001862 585.605530,97.761696 585.435730,106.498749 
	C585.278870,114.570328 586.804871,121.865776 594.042053,126.433380 
	C601.734070,131.288025 610.016602,130.969116 617.481750,124.977280 
	C619.258911,123.550835 620.553162,121.489731 623.000000,121.000000 
"/>
<path fill="none" opacity="1.000000" stroke="#000000" stroke-linecap="round" stroke-linejoin="round" stroke-width="7.000000"
	d="
M436.000000,96.000000 
	C433.790619,95.608627 432.359222,94.041870 431.020111,92.482719 
	C426.115631,86.772194 416.851501,85.569267 410.568451,88.640045 
	C403.420990,92.133286 398.639130,97.770447 398.429199,106.498299 
	C398.234283,114.600929 399.912323,121.839966 407.047974,126.425362 
	C414.616272,131.288803 423.394928,131.010727 430.487152,124.984886 
	C432.227295,123.506386 433.553131,121.489731 436.000000,121.000000 
"/>
<path fill="none" opacity="1.000000" stroke="#000000" stroke-linecap="round" stroke-linejoin="round" stroke-width="7.000000"
	d="
M724.500000,86.500000 
	C720.766052,87.859993 720.231445,91.531181 719.069702,94.527023 
	C715.543945,103.619080 712.369385,112.846756 708.965820,121.987267 
	C708.373840,123.577126 707.399292,125.041634 706.484802,126.490410 
	C705.041809,128.776306 703.520691,128.735901 701.995789,126.502861 
	C698.557861,121.468025 697.562683,115.397194 694.976074,110.011490 
	C691.479248,102.730637 690.335571,94.454094 685.500000,87.750000 
"/>
<path fill="none" opacity="1.000000" stroke="#000000" stroke-linecap="round" stroke-linejoin="round" stroke-width="7.000000"
	d="
M676.500000,87.750000 
	C672.751648,91.778526 672.035461,97.198967 670.047852,102.019737 
	C667.193665,108.942413 664.835938,116.072426 661.891602,122.953621 
	C661.063232,124.889488 660.837280,128.302292 657.511108,127.906715 
	C655.006836,127.608879 654.728394,125.079193 653.940918,123.022614 
	C650.920288,115.133369 647.650146,107.339943 644.509338,99.496277 
	C643.450867,96.852989 642.296326,94.221313 641.561584,91.483467 
	C640.922913,89.103760 639.461121,87.664436 637.500000,86.500000 
"/>
<path fill="none" opacity="1.000000" stroke="#000000" stroke-linecap="round" stroke-linejoin="round" stroke-width="4.000000"
	d="
M207.500000,91.000000 
	C215.170471,83.789627 224.235062,83.478294 232.901215,87.702652 
	C241.455170,91.872330 245.743515,99.801933 245.430161,109.497742 
	C245.148926,118.199554 238.946793,127.172119 230.494431,129.983246 
	C221.424759,132.999664 213.248215,131.795670 206.500000,124.500000 
"/>
<path fill="none" opacity="1.000000" stroke="#000000" stroke-linecap="round" stroke-linejoin="round" stroke-width="4.000000"
	d="
M139.500000,91.500000 
	C127.285530,80.293243 109.078262,84.779846 102.593254,99.540970 
	C99.098709,107.495224 100.462326,115.536797 105.581596,122.439484 
	C110.671722,129.302887 118.099594,132.200928 126.486893,131.368027 
	C131.514969,130.868698 136.442490,129.124130 140.000000,125.000000 
"/>
<path fill="none" opacity="1.000000" stroke="#000000" stroke-linecap="round" stroke-linejoin="round" stroke-width="8.000000"
	d="
M511.500000,128.500000 
	C511.500000,120.666664 511.519196,112.833275 511.495056,105.000015 
	C511.465881,95.523415 506.746887,89.712486 497.504852,87.479950 
	C492.168396,86.190857 488.019043,88.584618 484.008850,91.512131 
	C482.062683,92.932854 481.114563,95.838501 478.000000,95.500000 
"/>
<path fill="none" opacity="1.000000" stroke="#000000" stroke-linecap="round" stroke-linejoin="round" stroke-width="8.000000"
	d="
M382.500000,128.500000 
	C382.271851,119.667824 382.999695,110.819527 382.006683,101.999245 
	C381.270203,95.457130 377.926483,90.364922 371.938263,88.168259 
	C365.729523,85.890701 359.541840,87.077484 354.477448,91.976700 
	C352.913879,93.489304 351.769012,95.803703 349.000000,95.500000 
"/>
<path fill="none" opacity="1.000000" stroke="#000000" stroke-linecap="round" stroke-linejoin="round" stroke-width="7.000000"
	d="
M728.500000,86.000000 
	C733.754578,86.991997 734.352356,91.781876 735.932800,95.528351 
	C739.480408,103.937950 742.594543,112.529442 746.045410,120.981468 
	C747.038879,123.414757 747.711548,126.225357 750.500000,127.500000 
"/>
<path fill="none" opacity="1.000000" stroke="#000000" stroke-linecap="round" stroke-linejoin="round" stroke-width="7.000000"
	d="
M771.500000,86.500000 
	C769.709961,87.801300 768.266235,88.993385 767.341125,91.439926 
	C763.380554,101.914207 759.442383,112.482689 754.298523,122.395462 
	C750.494812,129.725601 748.414062,137.607086 744.961487,144.981964 
	C744.048096,146.932968 742.633057,148.633041 740.500000,149.500000 
"/>
<path fill="none" opacity="1.000000" stroke="#000000" stroke-linecap="round" stroke-linejoin="round" stroke-width="8.000000"
	d="
M457.500000,88.500000 
	C457.500000,101.833336 457.500000,115.166664 457.500000,128.500000 
"/>
<path fill="none" opacity="1.000000" stroke="#000000" stroke-linecap="round" stroke-linejoin="round" stroke-width="4.000000"
	d="
M141.000000,92.500000 
	C151.333344,102.999992 161.403687,113.776741 172.076950,123.919006 
	C181.952484,133.303238 196.063522,135.320694 206.000000,124.500000 
"/>
<path fill="none" opacity="1.000000" stroke="#000000" stroke-linecap="round" stroke-linejoin="round" stroke-width="4.000000"
	d="
M140.500000,91.500000 
	C129.117783,102.437798 131.869049,120.167015 144.490921,128.014587 
	C151.644394,132.462219 164.132019,132.763214 171.500000,125.500000 
"/>
<path fill="none" opacity="1.000000" stroke="#000000" stroke-linecap="round" stroke-linejoin="round" stroke-width="8.000000"
	d="
M347.500000,69.500000 
	C347.500000,89.166664 347.500000,108.833336 347.500000,128.500000 
"/>
<path fill="none" opacity="1.000000" stroke="#000000" stroke-linecap="round" stroke-linejoin="round" stroke-width="8.000000"
	d="
M476.500000,88.500000 
	C476.500000,101.833336 476.500000,115.166664 476.500000,128.500000 
"/>
<path fill="none" opacity="1.000000" stroke="#000000" stroke-linecap="round" stroke-linejoin="round" stroke-width="4.000000"
	d="
M141.500000,91.000000 
	C150.208984,82.137581 165.122681,83.785332 173.966827,92.533539 
	C184.607101,103.058395 195.000000,113.833336 205.500000,124.500000 
"/>
<path fill="none" opacity="1.000000" stroke="#000000" stroke-linecap="round" stroke-linejoin="round" stroke-width="7.000000"
	d="
M438.000000,88.000000 
	C435.369843,98.566818 440.063354,109.400032 436.710693,120.066231 
	C435.914795,122.598389 438.672119,125.804642 438.000000,129.000000 
"/>
<path fill="none" opacity="1.000000" stroke="#000000" stroke-linecap="round" stroke-linejoin="round" stroke-width="7.000000"
	d="
M625.000000,88.000000 
	C622.292603,98.563194 627.049255,109.399796 623.710327,120.065842 
	C622.916931,122.600609 625.672119,125.804642 625.000000,129.000000 
"/>
</svg>